<?xml version="1.0" encoding="utf-8"?>
<svg viewBox="0 0 500 500" xmlns="http://www.w3.org/2000/svg" xmlns:bx="https://boxy-svg.com">
  <defs>
    <bx:export>
      <bx:file format="jpeg" path="MelodicTyperIcon.jpg"/>
    </bx:export>
  </defs>
  <g id="SVGRepo_iconCarrier" transform="matrix(0.867592215538, 0, 0, 0.868139028549, 5.048473196898, 43.107847101876)" style="transform-origin: 23.4066px 56.482px;">
    <circle style="fill:#e9ffd4;" cx="254.644" cy="254.644" r="254.644"/>
    <path style="fill:#66976F;" d="M460.461,453.001H48.826c-17.632,0-29.838-16.276-26.787-35.264l30.517-182.082H457.07 l30.517,182.082C490.299,436.726,478.093,453.001,460.461,453.001z"/>
    <path style="fill:#414753;" d="M425.197,294.315H84.09L65.78,403.836c-2.713,15.258,7.46,28.482,21.701,28.482h334.665 c14.241,0,24.413-13.224,21.701-28.482L425.197,294.315z"/>
    <path style="fill:#646B79;" d="M468.26,182.421l-37.637-39.332l0,0H78.665l0,0l-37.637,39.332v46.453h11.189v7.121h404.514v-7.121 h11.189v-46.453H468.26z M422.485,193.272H86.803l8.816-21.701H413.33L422.485,193.272z"/>
    <rect x="121.388" y="56.286" style="fill:#F1F3F7;" width="266.511" height="136.646"/>
    <g>
      <path style="fill:#FFFFFC;" d="M122.744,302.453h-15.258c-2.034,0-4.069,1.695-4.069,4.069v13.563c0,2.034,1.695,4.069,4.069,4.069 h15.258c2.034,0,4.069-1.695,4.069-4.069v-13.563C126.474,304.148,124.779,302.453,122.744,302.453z"/>
      <path style="fill:#FFFFFC;" d="M150.209,302.453h-15.258c-2.034,0-4.069,1.695-4.069,4.069v13.563c0,2.034,1.695,4.069,4.069,4.069 h15.258c2.034,0,4.069-1.695,4.069-4.069v-13.563C153.939,304.148,152.244,302.453,150.209,302.453z"/>
      <path style="fill:#FFFFFC;" d="M177.674,302.453h-15.258c-2.034,0-4.069,1.695-4.069,4.069v13.563c0,2.034,1.695,4.069,4.069,4.069 h15.258c2.034,0,4.069-1.695,4.069-4.069v-13.563C181.404,304.148,179.709,302.453,177.674,302.453z"/>
      <path style="fill:#FFFFFC;" d="M204.8,302.453h-15.258c-2.034,0-4.069,1.695-4.069,4.069v13.563c0,2.034,1.695,4.069,4.069,4.069 H204.8c2.034,0,4.069-1.695,4.069-4.069v-13.563C208.869,304.148,207.174,302.453,204.8,302.453z"/>
      <path style="fill:#FFFFFC;" d="M232.265,302.453h-15.258c-2.034,0-4.069,1.695-4.069,4.069v13.563c0,2.034,1.695,4.069,4.069,4.069 h15.258c2.034,0,4.069-1.695,4.069-4.069v-13.563C236.334,304.148,234.638,302.453,232.265,302.453z"/>
      <path style="fill:#FFFFFC;" d="M259.73,302.453h-15.258c-2.034,0-4.069,1.695-4.069,4.069v13.563c0,2.034,1.695,4.069,4.069,4.069 h15.258c2.034,0,4.069-1.695,4.069-4.069v-13.563C263.799,304.148,262.103,302.453,259.73,302.453z"/>
      <path style="fill:#FFFFFC;" d="M287.195,302.453h-15.258c-2.034,0-4.069,1.695-4.069,4.069v13.563c0,2.034,1.695,4.069,4.069,4.069 h15.258c2.034,0,4.069-1.695,4.069-4.069v-13.563C291.264,304.148,289.229,302.453,287.195,302.453z"/>
      <path style="fill:#FFFFFC;" d="M314.66,302.453h-15.258c-2.034,0-4.069,1.695-4.069,4.069v13.563c0,2.034,1.695,4.069,4.069,4.069 h15.258c2.034,0,4.069-1.695,4.069-4.069v-13.563C318.389,304.148,316.694,302.453,314.66,302.453z"/>
      <path style="fill:#FFFFFC;" d="M342.125,302.453h-15.258c-2.034,0-4.069,1.695-4.069,4.069v13.563c0,2.034,1.695,4.069,4.069,4.069 h15.258c2.034,0,4.069-1.695,4.069-4.069v-13.563C345.854,304.148,344.159,302.453,342.125,302.453z"/>
      <path style="fill:#FFFFFC;" d="M369.589,302.453h-15.258c-2.034,0-4.069,1.695-4.069,4.069v13.563c0,2.034,1.695,4.069,4.069,4.069 h15.258c2.034,0,4.069-1.695,4.069-4.069v-13.563C373.319,304.148,371.624,302.453,369.589,302.453z"/>
      <path style="fill:#FFFFFC;" d="M397.054,302.453h-15.258c-2.034,0-4.069,1.695-4.069,4.069v13.563c0,2.034,1.695,4.069,4.069,4.069 h15.258c2.034,0,4.069-1.695,4.069-4.069v-13.563C400.784,304.148,399.089,302.453,397.054,302.453z"/>
      <path style="fill:#FFFFFC;" d="M122.744,364.503h-15.258c-2.034,0-4.069,1.695-4.069,4.069v13.563c0,2.034,1.695,4.069,4.069,4.069 h15.258c2.034,0,4.069-1.695,4.069-4.069v-13.563C126.474,366.199,124.779,364.503,122.744,364.503z"/>
      <path style="fill:#FFFFFC;" d="M150.209,364.503h-15.258c-2.034,0-4.069,1.695-4.069,4.069v13.563c0,2.034,1.695,4.069,4.069,4.069 h15.258c2.034,0,4.069-1.695,4.069-4.069v-13.563C153.939,366.199,152.244,364.503,150.209,364.503z"/>
      <path style="fill:#FFFFFC;" d="M177.674,364.503h-15.258c-2.034,0-4.069,1.695-4.069,4.069v13.563c0,2.034,1.695,4.069,4.069,4.069 h15.258c2.034,0,4.069-1.695,4.069-4.069v-13.563C181.404,366.199,179.709,364.503,177.674,364.503z"/>
      <path style="fill:#FFFFFC;" d="M204.8,364.503h-15.258c-2.034,0-4.069,1.695-4.069,4.069v13.563c0,2.034,1.695,4.069,4.069,4.069 H204.8c2.034,0,4.069-1.695,4.069-4.069v-13.563C208.869,366.199,207.174,364.503,204.8,364.503z"/>
      <path style="fill:#FFFFFC;" d="M232.265,364.503h-15.258c-2.034,0-4.069,1.695-4.069,4.069v13.563c0,2.034,1.695,4.069,4.069,4.069 h15.258c2.034,0,4.069-1.695,4.069-4.069v-13.563C236.334,366.199,234.638,364.503,232.265,364.503z"/>
      <path style="fill:#FFFFFC;" d="M259.73,364.503h-15.258c-2.034,0-4.069,1.695-4.069,4.069v13.563c0,2.034,1.695,4.069,4.069,4.069 h15.258c2.034,0,4.069-1.695,4.069-4.069v-13.563C263.799,366.199,262.103,364.503,259.73,364.503z"/>
      <path style="fill:#FFFFFC;" d="M287.195,364.503h-15.258c-2.034,0-4.069,1.695-4.069,4.069v13.563c0,2.034,1.695,4.069,4.069,4.069 h15.258c2.034,0,4.069-1.695,4.069-4.069v-13.563C291.264,366.199,289.229,364.503,287.195,364.503z"/>
      <path style="fill:#FFFFFC;" d="M314.66,364.503h-15.258c-2.034,0-4.069,1.695-4.069,4.069v13.563c0,2.034,1.695,4.069,4.069,4.069 h15.258c2.034,0,4.069-1.695,4.069-4.069v-13.563C318.389,366.199,316.694,364.503,314.66,364.503z"/>
      <path style="fill:#FFFFFC;" d="M342.125,364.503h-15.258c-2.034,0-4.069,1.695-4.069,4.069v13.563c0,2.034,1.695,4.069,4.069,4.069 h15.258c2.034,0,4.069-1.695,4.069-4.069v-13.563C345.854,366.199,344.159,364.503,342.125,364.503z"/>
      <path style="fill:#FFFFFC;" d="M369.589,364.503h-15.258c-2.034,0-4.069,1.695-4.069,4.069v13.563c0,2.034,1.695,4.069,4.069,4.069 h15.258c2.034,0,4.069-1.695,4.069-4.069v-13.563C373.319,366.199,371.624,364.503,369.589,364.503z"/>
      <path style="fill:#FFFFFC;" d="M397.054,364.503h-15.258c-2.034,0-4.069,1.695-4.069,4.069v13.563c0,2.034,1.695,4.069,4.069,4.069 h15.258c2.034,0,4.069-1.695,4.069-4.069v-13.563C400.784,366.199,399.089,364.503,397.054,364.503z"/>
      <path style="fill:#FFFFFC;" d="M108.842,333.309H93.584c-2.034,0-4.069,1.695-4.069,4.069v13.563c0,2.034,1.695,4.069,4.069,4.069 h15.258c2.034,0,4.069-1.695,4.069-4.069v-13.563C112.911,335.004,111.216,333.309,108.842,333.309z"/>
      <path style="fill:#FFFFFC;" d="M136.307,333.309h-15.258c-2.034,0-4.069,1.695-4.069,4.069v13.563c0,2.034,1.695,4.069,4.069,4.069 h15.258c2.034,0,4.069-1.695,4.069-4.069v-13.563C140.376,335.004,138.681,333.309,136.307,333.309z"/>
      <path style="fill:#FFFFFC;" d="M163.772,333.309h-15.258c-2.034,0-4.069,1.695-4.069,4.069v13.563c0,2.034,1.695,4.069,4.069,4.069 h15.258c2.034,0,4.069-1.695,4.069-4.069v-13.563C167.841,335.004,166.146,333.309,163.772,333.309z"/>
      <path style="fill:#FFFFFC;" d="M191.237,333.309h-15.258c-2.034,0-4.069,1.695-4.069,4.069v13.563c0,2.034,1.695,4.069,4.069,4.069 h15.258c2.034,0,4.069-1.695,4.069-4.069v-13.563C195.306,335.004,193.272,333.309,191.237,333.309z"/>
      <path style="fill:#FFFFFC;" d="M218.702,333.309h-15.258c-2.034,0-4.069,1.695-4.069,4.069v13.563c0,2.034,1.695,4.069,4.069,4.069 h15.258c2.034,0,4.069-1.695,4.069-4.069v-13.563C222.432,335.004,220.736,333.309,218.702,333.309z"/>
      <path style="fill:#FFFFFC;" d="M246.167,333.309h-15.258c-2.034,0-4.069,1.695-4.069,4.069v13.563c0,2.034,1.695,4.069,4.069,4.069 h15.258c2.034,0,4.069-1.695,4.069-4.069v-13.563C249.897,335.004,248.201,333.309,246.167,333.309z"/>
      <path style="fill:#FFFFFC;" d="M273.632,333.309h-15.258c-2.034,0-4.069,1.695-4.069,4.069v13.563c0,2.034,1.695,4.069,4.069,4.069 h15.258c2.034,0,4.069-1.695,4.069-4.069v-13.563C277.362,335.004,275.666,333.309,273.632,333.309z"/>
      <path style="fill:#FFFFFC;" d="M300.758,333.309h-15.258c-2.034,0-4.069,1.695-4.069,4.069v13.563c0,2.034,1.695,4.069,4.069,4.069 h15.258c2.034,0,4.069-1.695,4.069-4.069v-13.563C304.827,335.004,303.131,333.309,300.758,333.309z"/>
      <path style="fill:#FFFFFC;" d="M328.223,333.309h-15.258c-2.034,0-4.069,1.695-4.069,4.069v13.563c0,2.034,1.695,4.069,4.069,4.069 h15.258c2.034,0,4.069-1.695,4.069-4.069v-13.563C332.291,335.004,330.596,333.309,328.223,333.309z"/>
      <path style="fill:#FFFFFC;" d="M355.687,333.309h-15.258c-2.034,0-4.069,1.695-4.069,4.069v13.563c0,2.034,1.695,4.069,4.069,4.069 h15.258c2.034,0,4.069-1.695,4.069-4.069v-13.563C359.756,335.004,358.061,333.309,355.687,333.309z"/>
      <path style="fill:#FFFFFC;" d="M383.152,333.309h-15.258c-2.034,0-4.069,1.695-4.069,4.069v13.563c0,2.034,1.695,4.069,4.069,4.069 h15.258c2.034,0,4.069-1.695,4.069-4.069v-13.563C387.221,335.004,385.187,333.309,383.152,333.309z"/>
      <path style="fill:#FFFFFC;" d="M410.617,333.309h-15.258c-2.034,0-4.069,1.695-4.069,4.069v13.563c0,2.034,1.695,4.069,4.069,4.069 h15.258c2.034,0,4.069-1.695,4.069-4.069v-13.563C414.347,335.004,412.652,333.309,410.617,333.309z"/>
      <path style="fill:#FFFFFC;" d="M343.481,397.732H161.06c-1.356,0-2.374,1.356-2.374,2.713v14.241c0,1.695,1.017,2.713,2.374,2.713 h182.76c1.356,0,2.373-1.356,2.373-2.713v-14.241C345.854,399.089,344.837,397.732,343.481,397.732z"/>
    </g>
    <g/>
  </g>
  <g style="transform-origin: 457.118px 242.572px;" transform="matrix(2.954869270324, 0, 0, 3.196965932846, -684.51440502972, -590.318133123039)">
    <g>
      <g id="g-3" transform="matrix(1, 0, 0, 1, 574.19519, 382.57373)">
        <path d="M7 11V6.5V2" stroke="#66976F" stroke-width="1.5" stroke-linecap="round" fill="#66976F"/>
        <circle cx="4.5" cy="10.5" r="2.5" stroke="#66976F" stroke-width="1.5" fill="#66976F"/>
        <path d="M10 5C8.75736 5 7 4.07107 7 2" stroke="#66976F" stroke-width="1.5" stroke-linecap="round" fill="#66976F"/>
      </g>
    </g>
  </g>
  <g style="transform-origin: 457.118px 242.572px;" transform="matrix(2.954869270325, 0, 0, 3.196965932846, -660.527832764297, -554.623375950481)">
    <g>
      <g id="g-4" transform="matrix(1, 0, 0, 1, 574.19519, 382.57373)">
        <path d="M12 19.5C12 20.8807 10.8807 22 9.5 22C8.11929 22 7 20.8807 7 19.5C7 18.1193 8.11929 17 9.5 17C10.8807 17 12 18.1193 12 19.5Z" stroke="#66976F" stroke-width="1.5" fill="#66976F"/>
        <path d="M22 17.5C22 18.8807 20.8807 20 19.5 20C18.1193 20 17 18.8807 17 17.5C17 16.1193 18.1193 15 19.5 15C20.8807 15 22 16.1193 22 17.5Z" stroke="#66976F" stroke-width="1.5" fill="#66976F"/>
        <path d="M22 8L12 12" stroke="#66976F" stroke-width="1.5" stroke-linecap="round"/>
        <path d="M14.4556 5.15803L14.7452 5.84987L14.4556 5.15803ZM16.4556 4.32094L16.1661 3.62909L16.4556 4.32094ZM21.1081 3.34059L20.6925 3.96496L20.6925 3.96496L21.1081 3.34059ZM12.75 19.0004V8.84787H11.25V19.0004H12.75ZM22.75 17.1542V8.01078H21.25V17.1542H22.75ZM14.7452 5.84987L16.7452 5.01278L16.1661 3.62909L14.1661 4.46618L14.7452 5.84987ZM22.75 8.01078C22.75 6.67666 22.752 5.59091 22.6304 4.76937C22.5067 3.93328 22.2308 3.18689 21.5236 2.71622L20.6925 3.96496C20.8772 4.08787 21.0473 4.31771 21.1466 4.98889C21.248 5.67462 21.25 6.62717 21.25 8.01078H22.75ZM16.7452 5.01278C18.0215 4.47858 18.901 4.11263 19.5727 3.94145C20.2302 3.77391 20.5079 3.84204 20.6925 3.96496L21.5236 2.71622C20.8164 2.24554 20.0213 2.2792 19.2023 2.48791C18.3975 2.69298 17.3967 3.114 16.1661 3.62909L16.7452 5.01278ZM12.75 8.84787C12.75 8.18634 12.751 7.74991 12.7875 7.41416C12.822 7.09662 12.8823 6.94006 12.9594 6.8243L11.7106 5.99325C11.4527 6.38089 11.3455 6.79864 11.2963 7.25218C11.249 7.68752 11.25 8.21893 11.25 8.84787H12.75ZM14.1661 4.46618C13.5859 4.70901 13.0953 4.91324 12.712 5.12494C12.3126 5.34549 11.9686 5.60562 11.7106 5.99325L12.9594 6.8243C13.0364 6.70855 13.1575 6.59242 13.4371 6.438C13.7328 6.27473 14.135 6.10528 14.7452 5.84987L14.1661 4.46618Z" fill="#66976F"/>
        <path d="M7 11V6.5V2" stroke="#66976F" stroke-width="1.5" stroke-linecap="round"/>
        <circle cx="4.5" cy="10.5" r="2.5" stroke="#66976F" stroke-width="1.5" fill="#66976F"/>
        <path d="M10 5C8.75736 5 7 4.07107 7 2" stroke="#66976F" stroke-width="1.5" stroke-linecap="round" fill="#66976F"/>
      </g>
    </g>
  </g>
  <g style="transform-origin: 457.118px 242.572px;" transform="matrix(2.954869270325, 0, 0, 3.196965932846, -601.4842536626, -569.393517552141)">
    <g>
      <g id="g-5" transform="matrix(1, 0, 0, 1, 574.19519, 382.57373)">
        <path d="M12 19.5C12 20.8807 10.8807 22 9.5 22C8.11929 22 7 20.8807 7 19.5C7 18.1193 8.11929 17 9.5 17C10.8807 17 12 18.1193 12 19.5Z" stroke="#66976F" stroke-width="1.5" fill="#66976F"/>
        <path d="M22 17.5C22 18.8807 20.8807 20 19.5 20C18.1193 20 17 18.8807 17 17.5C17 16.1193 18.1193 15 19.5 15C20.8807 15 22 16.1193 22 17.5Z" stroke="#66976F" stroke-width="1.5" fill="#66976F"/>
        <path d="M22 8L12 12" stroke="#66976F" stroke-width="1.5" stroke-linecap="round"/>
        <path d="M14.4556 5.15803L14.7452 5.84987L14.4556 5.15803ZM16.4556 4.32094L16.1661 3.62909L16.4556 4.32094ZM21.1081 3.34059L20.6925 3.96496L20.6925 3.96496L21.1081 3.34059ZM12.75 19.0004V8.84787H11.25V19.0004H12.75ZM22.75 17.1542V8.01078H21.25V17.1542H22.75ZM14.7452 5.84987L16.7452 5.01278L16.1661 3.62909L14.1661 4.46618L14.7452 5.84987ZM22.75 8.01078C22.75 6.67666 22.752 5.59091 22.6304 4.76937C22.5067 3.93328 22.2308 3.18689 21.5236 2.71622L20.6925 3.96496C20.8772 4.08787 21.0473 4.31771 21.1466 4.98889C21.248 5.67462 21.25 6.62717 21.25 8.01078H22.75ZM16.7452 5.01278C18.0215 4.47858 18.901 4.11263 19.5727 3.94145C20.2302 3.77391 20.5079 3.84204 20.6925 3.96496L21.5236 2.71622C20.8164 2.24554 20.0213 2.2792 19.2023 2.48791C18.3975 2.69298 17.3967 3.114 16.1661 3.62909L16.7452 5.01278ZM12.75 8.84787C12.75 8.18634 12.751 7.74991 12.7875 7.41416C12.822 7.09662 12.8823 6.94006 12.9594 6.8243L11.7106 5.99325C11.4527 6.38089 11.3455 6.79864 11.2963 7.25218C11.249 7.68752 11.25 8.21893 11.25 8.84787H12.75ZM14.1661 4.46618C13.5859 4.70901 13.0953 4.91324 12.712 5.12494C12.3126 5.34549 11.9686 5.60562 11.7106 5.99325L12.9594 6.8243C13.0364 6.70855 13.1575 6.59242 13.4371 6.438C13.7328 6.27473 14.135 6.10528 14.7452 5.84987L14.1661 4.46618Z" fill="#66976F"/>
      </g>
    </g>
  </g>
  <g style="transform-origin: 457.118px 242.572px;" transform="matrix(2.954869270325, 0, 0, 3.196965932846, -546.137270176783, -588.402971990274)">
    <g>
      <g id="g-7" transform="matrix(1, 0, 0, 1, 574.19519, 382.57373)">
        <path d="M12 19.5C12 20.8807 10.8807 22 9.5 22C8.11929 22 7 20.8807 7 19.5C7 18.1193 8.11929 17 9.5 17C10.8807 17 12 18.1193 12 19.5Z" stroke="#66976F" stroke-width="1.5" fill="#66976F"/>
        <path d="M22 17.5C22 18.8807 20.8807 20 19.5 20C18.1193 20 17 18.8807 17 17.5C17 16.1193 18.1193 15 19.5 15C20.8807 15 22 16.1193 22 17.5Z" stroke="#66976F" stroke-width="1.5" fill="#66976F"/>
        <path d="M22 8L12 12" stroke="#66976F" stroke-width="1.5" stroke-linecap="round"/>
        <path d="M14.4556 5.15803L14.7452 5.84987L14.4556 5.15803ZM16.4556 4.32094L16.1661 3.62909L16.4556 4.32094ZM21.1081 3.34059L20.6925 3.96496L20.6925 3.96496L21.1081 3.34059ZM12.75 19.0004V8.84787H11.25V19.0004H12.75ZM22.75 17.1542V8.01078H21.25V17.1542H22.75ZM14.7452 5.84987L16.7452 5.01278L16.1661 3.62909L14.1661 4.46618L14.7452 5.84987ZM22.75 8.01078C22.75 6.67666 22.752 5.59091 22.6304 4.76937C22.5067 3.93328 22.2308 3.18689 21.5236 2.71622L20.6925 3.96496C20.8772 4.08787 21.0473 4.31771 21.1466 4.98889C21.248 5.67462 21.25 6.62717 21.25 8.01078H22.75ZM16.7452 5.01278C18.0215 4.47858 18.901 4.11263 19.5727 3.94145C20.2302 3.77391 20.5079 3.84204 20.6925 3.96496L21.5236 2.71622C20.8164 2.24554 20.0213 2.2792 19.2023 2.48791C18.3975 2.69298 17.3967 3.114 16.1661 3.62909L16.7452 5.01278ZM12.75 8.84787C12.75 8.18634 12.751 7.74991 12.7875 7.41416C12.822 7.09662 12.8823 6.94006 12.9594 6.8243L11.7106 5.99325C11.4527 6.38089 11.3455 6.79864 11.2963 7.25218C11.249 7.68752 11.25 8.21893 11.25 8.84787H12.75ZM14.1661 4.46618C13.5859 4.70901 13.0953 4.91324 12.712 5.12494C12.3126 5.34549 11.9686 5.60562 11.7106 5.99325L12.9594 6.8243C13.0364 6.70855 13.1575 6.59242 13.4371 6.438C13.7328 6.27473 14.135 6.10528 14.7452 5.84987L14.1661 4.46618Z" fill="#66976F"/>
      </g>
    </g>
  </g>
  <g style="transform-origin: 457.118px 242.572px;" transform="matrix(2.954869270324, 0, 0, 3.196965932846, -474.399781006282, -610.395647771476)">
    <g>
      <g id="g-6" transform="matrix(1, 0, 0, 1, 574.19519, 382.57373)">
        <path d="M7 11V6.5V2" stroke="#66976F" stroke-width="1.5" stroke-linecap="round"/>
        <circle cx="4.5" cy="10.5" r="2.5" stroke="#66976F" stroke-width="1.5" fill="#66976F"/>
        <path d="M10 5C8.75736 5 7 4.07107 7 2" stroke="#66976F" stroke-width="1.5" stroke-linecap="round" fill="#66976F"/>
      </g>
    </g>
  </g>
  <g style="transform-origin: 457.118px 242.572px;" transform="matrix(2.954869270325, 0, 0, 3.196965932846, -439.957582676741, -632.551043279289)">
    <g>
      <g id="g-8" transform="matrix(1, 0, 0, 1, 574.19519, 382.57373)">
        <path d="M7 11V6.5V2" stroke="#66976F" stroke-width="1.5" stroke-linecap="round"/>
        <circle cx="4.5" cy="10.5" r="2.5" stroke="#66976F" stroke-width="1.5" fill="#66976F"/>
        <path d="M10 5C8.75736 5 7 4.07107 7 2" stroke="#66976F" stroke-width="1.5" stroke-linecap="round" fill="#66976F"/>
      </g>
    </g>
  </g>
  <g style="transform-origin: 457.118px 242.572px;" transform="matrix(2.954869270325, 0, 0, 3.196965932846, -434.199951904891, -623.879900701208)">
    <g>
      <g id="g-9" transform="matrix(1, 0, 0, 1, 574.19519, 382.57373)">
        <path d="M12 19.5C12 20.8807 10.8807 22 9.5 22C8.11929 22 7 20.8807 7 19.5C7 18.1193 8.11929 17 9.5 17C10.8807 17 12 18.1193 12 19.5Z" stroke="#66976F" stroke-width="1.5" fill="#66976F"/>
        <path d="M22 17.5C22 18.8807 20.8807 20 19.5 20C18.1193 20 17 18.8807 17 17.5C17 16.1193 18.1193 15 19.5 15C20.8807 15 22 16.1193 22 17.5Z" stroke="#66976F" stroke-width="1.5" fill="#66976F"/>
        <path d="M22 8L12 12" stroke="#66976F" stroke-width="1.5" stroke-linecap="round"/>
        <path d="M14.4556 5.15803L14.7452 5.84987L14.4556 5.15803ZM16.4556 4.32094L16.1661 3.62909L16.4556 4.32094ZM21.1081 3.34059L20.6925 3.96496L20.6925 3.96496L21.1081 3.34059ZM12.75 19.0004V8.84787H11.25V19.0004H12.75ZM22.75 17.1542V8.01078H21.25V17.1542H22.75ZM14.7452 5.84987L16.7452 5.01278L16.1661 3.62909L14.1661 4.46618L14.7452 5.84987ZM22.75 8.01078C22.75 6.67666 22.752 5.59091 22.6304 4.76937C22.5067 3.93328 22.2308 3.18689 21.5236 2.71622L20.6925 3.96496C20.8772 4.08787 21.0473 4.31771 21.1466 4.98889C21.248 5.67462 21.25 6.62717 21.25 8.01078H22.75ZM16.7452 5.01278C18.0215 4.47858 18.901 4.11263 19.5727 3.94145C20.2302 3.77391 20.5079 3.84204 20.6925 3.96496L21.5236 2.71622C20.8164 2.24554 20.0213 2.2792 19.2023 2.48791C18.3975 2.69298 17.3967 3.114 16.1661 3.62909L16.7452 5.01278ZM12.75 8.84787C12.75 8.18634 12.751 7.74991 12.7875 7.41416C12.822 7.09662 12.8823 6.94006 12.9594 6.8243L11.7106 5.99325C11.4527 6.38089 11.3455 6.79864 11.2963 7.25218C11.249 7.68752 11.25 8.21893 11.25 8.84787H12.75ZM14.1661 4.46618C13.5859 4.70901 13.0953 4.91324 12.712 5.12494C12.3126 5.34549 11.9686 5.60562 11.7106 5.99325L12.9594 6.8243C13.0364 6.70855 13.1575 6.59242 13.4371 6.438C13.7328 6.27473 14.135 6.10528 14.7452 5.84987L14.1661 4.46618Z" fill="#66976F"/>
      </g>
    </g>
  </g>
  <g style="transform-origin: 457.118px 242.572px;" transform="matrix(2.954869270325, 0, 0, 3.196965932846, -379.957582676791, -685.234215794271)">
    <g>
      <g id="g-10" transform="matrix(1, 0, 0, 1, 574.19519, 382.57373)">
        <path d="M12 19.5C12 20.8807 10.8807 22 9.5 22C8.11929 22 7 20.8807 7 19.5C7 18.1193 8.11929 17 9.5 17C10.8807 17 12 18.1193 12 19.5Z" stroke="#66976F" stroke-width="1.5" fill="#66976F"/>
        <path d="M22 17.5C22 18.8807 20.8807 20 19.5 20C18.1193 20 17 18.8807 17 17.5C17 16.1193 18.1193 15 19.5 15C20.8807 15 22 16.1193 22 17.5Z" stroke="#66976F" stroke-width="1.5" fill="#66976F"/>
        <path d="M22 8L12 12" stroke="#66976F" stroke-width="1.5" stroke-linecap="round"/>
        <path d="M14.4556 5.15803L14.7452 5.84987L14.4556 5.15803ZM16.4556 4.32094L16.1661 3.62909L16.4556 4.32094ZM21.1081 3.34059L20.6925 3.96496L20.6925 3.96496L21.1081 3.34059ZM12.75 19.0004V8.84787H11.25V19.0004H12.75ZM22.75 17.1542V8.01078H21.25V17.1542H22.75ZM14.7452 5.84987L16.7452 5.01278L16.1661 3.62909L14.1661 4.46618L14.7452 5.84987ZM22.75 8.01078C22.75 6.67666 22.752 5.59091 22.6304 4.76937C22.5067 3.93328 22.2308 3.18689 21.5236 2.71622L20.6925 3.96496C20.8772 4.08787 21.0473 4.31771 21.1466 4.98889C21.248 5.67462 21.25 6.62717 21.25 8.01078H22.75ZM16.7452 5.01278C18.0215 4.47858 18.901 4.11263 19.5727 3.94145C20.2302 3.77391 20.5079 3.84204 20.6925 3.96496L21.5236 2.71622C20.8164 2.24554 20.0213 2.2792 19.2023 2.48791C18.3975 2.69298 17.3967 3.114 16.1661 3.62909L16.7452 5.01278ZM12.75 8.84787C12.75 8.18634 12.751 7.74991 12.7875 7.41416C12.822 7.09662 12.8823 6.94006 12.9594 6.8243L11.7106 5.99325C11.4527 6.38089 11.3455 6.79864 11.2963 7.25218C11.249 7.68752 11.25 8.21893 11.25 8.84787H12.75ZM14.1661 4.46618C13.5859 4.70901 13.0953 4.91324 12.712 5.12494C12.3126 5.34549 11.9686 5.60562 11.7106 5.99325L12.9594 6.8243C13.0364 6.70855 13.1575 6.59242 13.4371 6.438C13.7328 6.27473 14.135 6.10528 14.7452 5.84987L14.1661 4.46618Z" fill="#66976F"/>
        <path d="M7 11V6.5V2" stroke="#66976F" stroke-width="1.5" stroke-linecap="round"/>
        <circle cx="4.5" cy="10.5" r="2.5" stroke="#66976F" stroke-width="1.5" fill="#66976F"/>
        <path d="M10 5C8.75736 5 7 4.07107 7 2" stroke="#66976F" stroke-width="1.5" stroke-linecap="round" fill="#66976F"/>
      </g>
    </g>
  </g>
  <g style="transform-origin: 457.118px 242.572px;" transform="matrix(2.954869270325, 0, 0, 3.196965932846, -348.227539795726, -612.141985662101)">
    <g>
      <g id="g-11" transform="matrix(1, 0, 0, 1, 574.19519, 382.57373)">
        <path d="M7 11V6.5V2" stroke="#66976F" stroke-width="1.5" stroke-linecap="round"/>
        <circle cx="4.5" cy="10.5" r="2.5" stroke="#66976F" stroke-width="1.5" fill="#66976F"/>
        <path d="M10 5C8.75736 5 7 4.07107 7 2" stroke="#66976F" stroke-width="1.5" stroke-linecap="round" fill="#66976F"/>
      </g>
    </g>
  </g>
</svg>
